/* XPM */
static char *_ca7f2292f9643efa916c734c445b5f2nL6rvlXdtqMHxXut[] = {
/* columns rows colors chars-per-pixel */
"20 20 193 2 ",
"   c black",
".  c #DADFE7",
"X  c #95A3BC",
"o  c #E1E5EC",
"O  c #C9D0DC",
"+  c #C5CDDA",
"@  c #576D95",
"#  c #646F98",
"$  c #B1B9CC",
"%  c #F2F3F6",
"&  c #B4BECF",
"*  c #909FB8",
"=  c #9EA9C0",
"-  c #846396",
";  c #966A9C",
":  c #8385A8",
">  c #C6CDDA",
",  c #FBFBFC",
"<  c #F1F3F6",
"1  c #8495B1",
"2  c #B7C0D0",
"3  c #81769E",
"4  c #E47EB3",
"5  c #CE78AC",
"6  c #876B9A",
"7  c #9297B3",
"8  c #DDE0E7",
"9  c #D1D6E1",
"0  c #D6DAE3",
"q  c #A2AABF",
"w  c #AA7586",
"e  c #FF8EA8",
"r  c #F484B9",
"t  c #B971A5",
"y  c #80709C",
"u  c #A5ABC1",
"i  c #EAECF0",
"p  c #CFD4DF",
"a  c #BEC6D4",
"s  c #807F71",
"d  c #EAA337",
"f  c #FF9A7B",
"g  c #FF8BB2",
"h  c #E980B5",
"j  c #A46CA0",
"k  c #807BA1",
"l  c #B9C0D0",
"z  c #F5F6F8",
"x  c #C4CBD7",
"c  c #BBC3D1",
"v  c #A0A9B5",
"b  c #AD8F29",
"n  c #FFB90A",
"m  c #FEAA40",
"M  c #FF9490",
"N  c #FE89B8",
"B  c #DB7BB1",
"V  c #90699A",
"C  c #8488A9",
"Z  c #CED4DE",
"A  c #FCFDFD",
"S  c #FDFDFD",
"D  c gray99",
"F  c #DEE2E9",
"G  c #828066",
"H  c #EDB108",
"J  c #FFBC00",
"K  c #FEB614",
"L  c #FEA357",
"P  c #FF909F",
"I  c #F986B9",
"U  c #C975AA",
"Y  c #836B9A",
"T  c #969CB6",
"R  c #DFE3E9",
"E  c #9CA5AE",
"W  c #B49228",
"Q  c #FFBB00",
"!  c #FFBB02",
"~  c #FEB222",
"^  c #FE9D6E",
"/  c #FF8DAC",
"(  c #F284B9",
")  c #B370A4",
"_  c #7E719C",
"`  c #A8AFC4",
"'  c #EEEFF3",
"]  c #DBDFE4",
"[  c #817D5E",
"{  c #F1B407",
"}  c #FEBB05",
"|  c #FDAE32",
" . c #FE9085",
".. c #FF86B7",
"X. c #E881B4",
"o. c #99699C",
"O. c #6A759C",
"+. c #D4D9E3",
"@. c #D5DAE0",
"#. c #837E5A",
"$. c #F3B507",
"%. c #FEB504",
"&. c #FC9417",
"*. c #FD643F",
"=. c #FC6272",
"-. c #DB749F",
";. c #906A9C",
":. c #7883A6",
">. c #DCE0E8",
",. c #FDFDFE",
"<. c #969FA6",
"1. c #BC9624",
"2. c #FDB902",
"3. c #FCA013",
"4. c #FD702F",
"5. c #FF5041",
"6. c #EA4847",
"7. c #A24959",
"8. c #7E7291",
"9. c #B7BED0",
"0. c #F6F7F9",
"q. c #D8DDE4",
"w. c #827F5E",
"e. c #F0B407",
"r. c #FDAA0C",
"t. c #FC7D27",
"y. c #FF573D",
"u. c #F44A47",
"i. c #BA4753",
"p. c #7F607B",
"a. c #A6ABBE",
"s. c #CDD2DD",
"d. c #B5BCCC",
"f. c #99A1AA",
"g. c #B69426",
"h. c #FFB206",
"j. c #FC8B1F",
"k. c #FE5E3A",
"l. c #FB4B45",
"z. c #CD474E",
"x. c #88566D",
"c. c #8F91A8",
"v. c #BAC0CF",
"b. c #B9C0CE",
"n. c #E0E1E7",
"m. c #D8DBE4",
"M. c #FEFEFE",
"N. c #DCE0E7",
"B. c #817A67",
"V. c #EC8E1F",
"C. c #FE6833",
"Z. c #FE4E43",
"A. c #DF484A",
"S. c #944C60",
"D. c #857D96",
"F. c #B8BECC",
"G. c #A4ACC0",
"H. c #828FAB",
"J. c #BAC1D0",
"K. c #FEFFFF",
"L. c #9A9EB2",
"P. c #B1544D",
"I. c #FF533F",
"U. c #EC4948",
"Y. c #A94958",
"T. c #7E6A84",
"R. c #B2B8C8",
"E. c #F4F5F6",
"W. c #C4C9D6",
"Q. c #A3ACC1",
"!. c #E9EAEF",
"~. c #DDE2E9",
"^. c #80607B",
"/. c #E34849",
"(. c #BE4751",
"). c #815B76",
"_. c #9FA2B6",
"`. c #E7E9EE",
"'. c #FAFAFB",
"]. c #9AA2B8",
"[. c #80445D",
"{. c #8B5168",
"}. c #8D8CA5",
"|. c #D6DAE2",
" X c #FFFEFE",
".X c #E2E4EB",
"XX c #52668D",
"oX c #707494",
"OX c #C1C7D4",
"+X c #F9F9FB",
"@X c #DEE1E8",
"#X c #A9B3C6",
"$X c #ECEEF3",
/* pixels */
"  . X o                                 ",
"O + @ # $                               ",
"& * = - ; :                             ",
"< 1 2 3 4 5 6 7 8                       ",
"  9 0 q w e r t y u i                   ",
"    p a s d f g h j k l z               ",
"    x c v b n m M N B V C Z A           ",
"    S D F G H J K L P I U Y T R         ",
"          E W J Q ! ~ ^ / ( ) _ ` '     ",
"          ] [ { Q Q J } |  ...X.o.O.+.  ",
"          @.#.$.Q Q J %.&.*.=.-.;.:.>.  ",
"        ,.<.1.J J 2.3.4.5.6.7.8.9.0.    ",
"        q.w.e.J r.t.y.u.i.p.a.s.d.,     ",
"      S f.g.h.j.k.l.z.x.c.v.b.n.m.M.    ",
"      N.B.V.C.Z.A.S.D.F.G.H.J.,         ",
"    K.L.P.I.U.Y.T.R.E.W.Q.!.            ",
"    ~.^./.(.)._.`.    '.M.              ",
"    ].[.{.}.|.                          ",
"  .XXXoXOX+X                            ",
"  @X#X$X                                "
};
