/* XPM */
static char *_73c46d982e74804da0b83382a9750a9nknDdon4gZg4VLab[] = {
/* columns rows colors chars-per-pixel */
"50 50 203 2 ",
"   c #1C3F6E",
".  c #1C3E73",
"X  c #223E6E",
"o  c #2C3E6E",
"O  c #233F74",
"+  c #2C3E73",
"@  c #383D72",
"#  c #593E5E",
"$  c #483D65",
"%  c #443E6A",
"&  c #394D58",
"*  c #3E505B",
"=  c #1E4174",
"-  c #1D4179",
";  c #24436D",
":  c #2A4468",
">  c #37436D",
",  c #244375",
"<  c #294375",
"1  c #2A4975",
"2  c #264579",
"3  c #2B4479",
"4  c #2D4A7B",
"5  c #334777",
"6  c #3A457A",
"7  c #344D7B",
"8  c #385072",
"9  c #36517D",
"0  c #3A537C",
"q  c #474F55",
"w  c #495556",
"e  c #565C53",
"r  c #74425E",
"t  c #5D614B",
"y  c #63654B",
"u  c #454069",
"i  c #44487B",
"p  c #494A7F",
"a  c #6D4565",
"s  c #734564",
"d  c #8D7838",
"f  c #FB533E",
"g  c #F95A38",
"h  c #F76A2D",
"j  c #F87828",
"k  c #F76232",
"l  c #F96434",
"z  c #84445C",
"x  c #9C4658",
"c  c #99495D",
"v  c #A74958",
"b  c #BE4D56",
"n  c #884762",
"m  c #B8596C",
"M  c #C54B53",
"N  c #CD4E54",
"B  c #D54F56",
"V  c #E34D4E",
"C  c #EB4E4A",
"Z  c #F54D46",
"A  c #FD4C45",
"S  c #F44D49",
"D  c #F94C48",
"F  c #ED5C40",
"G  c #FD5041",
"H  c #F9564C",
"J  c #EB4F50",
"K  c #F85254",
"L  c #F96273",
"P  c #B79529",
"I  c #A38536",
"U  c #F88B1D",
"Y  c #FA961D",
"T  c #FCAF0C",
"R  c #EEB30D",
"E  c #FDB606",
"W  c #FEBB01",
"Q  c #F3B50E",
"!  c #FCB50A",
"~  c #F8B90A",
"^  c #E5AE15",
"/  c #FCA214",
"(  c #FBAA12",
")  c #EAB213",
"_  c #FEB613",
"`  c #FDB810",
"'  c #C39C29",
"]  c #FA8422",
"[  c #FB8F20",
"{  c #D4A624",
"}  c #FDAF2B",
"|  c #FFB224",
" . c #FFB12A",
".. c #FEAA3C",
"X. c #FEA947",
"o. c #FEA454",
"O. c #FE9D6E",
"+. c #E6937A",
"@. c #FE9B75",
"#. c #FDA061",
"$. c #354F80",
"%. c #3C5481",
"&. c #3E5984",
"*. c #484E80",
"=. c #455685",
"-. c #435B84",
";. c #495D84",
":. c #644E83",
">. c #61598C",
",. c #6C588D",
"<. c #785B8F",
"1. c #4B6188",
"2. c #4E648B",
"3. c #576686",
"4. c #53658B",
"5. c #52698F",
"6. c #566B92",
"7. c #5D6F94",
"8. c #656D8E",
"9. c #667489",
"0. c #707A87",
"q. c #6C7999",
"w. c #737B99",
"e. c #835E92",
"r. c #856095",
"t. c #99699C",
"y. c #A66A9F",
"u. c #9B6DA1",
"i. c #A970A4",
"p. c #BB7BAD",
"a. c #FB6F89",
"s. c #C878AD",
"d. c #D47DAF",
"f. c #CB7CB1",
"g. c #7E878B",
"h. c #728290",
"j. c #73829D",
"k. c #7D839C",
"l. c #7986A5",
"z. c #7D8CA7",
"x. c #818797",
"c. c #8C939B",
"v. c #818AA3",
"b. c #838DAA",
"n. c #8A8FA9",
"m. c #8A92A8",
"M. c #9494A9",
"N. c #939BB3",
"B. c #9BA4B7",
"V. c #9CA5BA",
"C. c #A5A7B9",
"Z. c #B2A9B5",
"A. c #B2B1BD",
"S. c #FD958B",
"D. c #FA8794",
"F. c #FD9199",
"G. c #DF81B5",
"H. c #FD8AA7",
"J. c #FD8DAA",
"K. c #E582B5",
"L. c #E782B6",
"P. c #EC86B9",
"I. c #FA86B5",
"U. c #FE89B6",
"Y. c #F487BA",
"T. c #FC87BB",
"R. c #F789BA",
"E. c #FD88BA",
"W. c #A6ADC2",
"Q. c #ADB2C4",
"!. c #ACB5C8",
"~. c #B3B4C4",
"^. c #BBBBCA",
"/. c #C9BFC3",
"(. c #C8C9C8",
"). c #D4CCCF",
"_. c #C7CBD7",
"`. c #D4CDD7",
"'. c #CED1DB",
"]. c #D5D2D6",
"[. c #D9DAD6",
"{. c #D3D3DC",
"}. c #DAD6DC",
"|. c #DCDADF",
" X c #E1DFD6",
".X c #E3E1DC",
"XX c #D6D8E2",
"oX c #DEDCE4",
"OX c #E2DEE4",
"+X c #DDE1E8",
"@X c #E2E1E4",
"#X c #E3E4EA",
"$X c #E9E5E8",
"%X c #E7E9ED",
"&X c #EDEBED",
"*X c #ECEDF1",
"=X c #F1EFF2",
"-X c #EFF0F4",
";X c #F4F3F5",
":X c #F9F9F7",
">X c #F6F6F8",
",X c #F8F7F8",
"<X c #FFFFFF",
/* pixels */
"<X<X<X<X;X#X,X<X<X<X<X<X<X<X<X<X<X<X<X<X<X<X<X<X<X<X<X<X<X<X<X<X<X<X<X<X<X<X<X<X<X<X<X<X<X<X<X<X<X<X",
"<X<X<X<XV.&.b.*X<X<X<X<X<X<X<X<X<X<X<X<X<X<X<X<X<X<X<X<X<X<X<X<X<X<X<X<X<X<X<X<X<X<X<X<X<X<X<X<X<X<X",
"<X<X<X<X!., = -.Q.*X<X<X<X<X<X<X<X<X<X<X<X<X<X<X<X<X<X<X<X<X<X<X<X<X<X<X<X<X<X<X<X<X<X<X<X<X<X<X<X<X",
"<X+X{.<X-X=.. . , 2._.,X<X<X<X<X<X<X<X<X<X<X<X<X<X<X<X<X<X<X<X<X<X<X<X<X<X<X<X<X<X<X<X<X<X<X<X<X<X<X",
",X6.&.+X<X!.2 *.>., 4 l.XX<X<X<X<X<X<X<X<X<X<X<X<X<X<X<X<X<X<X<X<X<X<X<X<X<X<X<X<X<X<X<X<X<X<X<X<X<X",
"<XN.2 z.<X>X5.2 p.f.p , 4 N.;X<X<X<X<X<X<X<X<X<X<X<X<X<X<X<X<X<X<X<X<X<X<X<X<X<X<X<X<X<X<X<X<X<X<X<X",
"<X*X1.4 XX,XV., r.R.L.t.i 2 5.!.;X<X<X<X<X<X<X<X<X<X<X<X<X<X<X<X<X<X<X<X<X<X<X<X<X<X<X<X<X<X<X<X<X<X",
"<X<XW., b.,X%X0 < L.T.T.P.<.< 2 8.oX,X<X<X<X<X<X<X<X<X<X<X<X<X<X<X<X<X<X<X<X<X<X<X<X<X<X<X<X<X<X<X<X",
"<X<X#X&.%.%X,XQ., e.R.T.E.R.s.,.. 7 b.OX<X<X<X<X<X<X<X<X<X<X<X<X<X<X<X<X<X<X<X<X<X<X<X<X<X<X<X<X<X<X",
"<X<X,XV.= N.,X*X-.6 d.E.E.E.R.Y.p.i < %.~.;X<X<X<X<X<X<X<X<X<X<X<X<X<X<X<X<X<X<X<X<X<X<X<X<X<X<X<X<X",
"<X<X<X-X1.%.;X,XN., t.R.E.E.E.T.T.L.t.6 , 7.^.>X<X<X<X<X<X<X<X<X<X<X<X<X<X<X<X<X<X<X<X<X<X<X<X<X<X<X",
"<X<X<X<X_._.,X<X$X9 > +.J.E.U.E.T.E.R.G.:.3 2 k.oX,X<X<X<X<X<X<X<X<X<X<X<X<X<X<X<X<X<X<X<X<X<X<X<X<X",
"<X<X<X<X<X<X<X<X<XB., d } @.U.U.T.E.E.E.R.s.>.. 7 v.=X<X<X<X<X<X<X<X<X<X<X<X<X<X<X<X<X<X<X<X<X<X<X<X",
"<X<X<X<X<X<X{._.<X%X;.* ^ ! ..S.U.E.E.E.E.T.Y.y.*., -.~.*X<X<X<X<X<X<X<X<X<X<X<X<X<X<X<X<X<X<X<X<X<X",
"<X<X<X<X<X,Xq.9 oX,Xm.; I ~ W _ o.F.U.T.E.E.T.T.L.u.+ 1 6.`.,X<X<X<X<X<X<X<X<X<X<X<X<X<X<X<X<X<X<X<X",
"<X<X<X<X<X<XV.2 V.<X@X7 & ) W W W | O.H.U.E.T.T.E.T.d.,.< , v.}.,X<X<X<X<X<X<X<X<X<X<X<X<X<X<X<X<X<X",
"<X<X<X<X<X<X#X0 l.,X:XC.. d W W W W W  .S.U.T.T.E.E.E.I.f.@ = 4 M.<X<X<X<X<X<X<X<X<X<X<X<X<X<X<X<X<X",
"<X<X<X<X<X<X<X&X;X<X<X@X0 w ^ W W W W W ` X.S.U.E.E.E.E.T.P.y.p , ;.~.;X<X<X<X<X<X<X<X<X<X<X<X<X<X<X",
"<X<X<X<X<X<X<X<X<X<X<X,Xx., P W W W W W W W ` o.J.E.E.T.E.T.R.P.e.< 2 1.|.<X<X<X<X<X<X<X<X<X<X<X<X<X",
"<X<X<X<X<X<X<X<X<X<X<X<X.X7 q ) W W W W W W W W  .O.J.U.E.E.E.E.R.f.,., 7 n.oX,X<X<X<X<X<X<X<X<X<X<X",
"<X<X<X<X<X<X<X<X<X<X<X<X<Xc.; I W W W W W W E W W W } S.U.T.E.E.T.T.R.f.i . 1 C.,X<X<X<X<X<X<X<X<X<X",
"<X<X<X<X<X<X<X<X<X<X<X<X<X[.0 e Q W W W W W W W W W W ` X.F.E.T.E.T.E.R.P.y.6 , 4.Q.,X<X<X<X<X<X<X<X",
"<X<X<X<X<X<X<X<X<X<X<X<X<X:Xh.; ' W W W W W W W W W W W W _ #.H.E.E.T.T.E.T.P.<.3 , 3.XX,X<X<X<X<X<X",
"<X<X<X<X<X<X<X<X<X<X<X<X<X<X X8 q Q W W W W W W W W W W W W W  .@.U.U.T.T.E.E.R.s.,.O $.l.#X<X<X<X<X",
"<X<X<X<X<X<X<X<X<X<X<X<X<X<X:Xg.  P ~ W W W W W W W W W W W W W E ..D.I.E.E.E.E.T.R.i.3 . &.>X<X<X<X",
"<X<X<X<X<X<X<X<X<X<X<X<X<X<X,X9.  { W W W W W W W W W W W W W W T j H L H.E.E.E.T.P.:.< - w.,X<X<X<X",
"<X<X<X<X<X<X<X<X<X<X<X<X<X<X(.1 t ~ W W W W W W W W W W W W T [ g A A A K a.I.L.i.6 O 2.^.,X<X<X<X<X",
"<X<X<X<X<X<X<X<X<X<X<X<X<X;X3.: { W W W W W W W W W W W E Y k G A A A A A S m i , 9 W.*X<X<X<X<X<X<X",
"<X<X<X<X<X<X<X<X<X<X<X<X<X(.4 y ~ W W W W W W W W W W / j G A A A A A Z M s o 4 l.OX<X<X<X<X<X<X<X<X",
"<X<X<X<X<X<X<X<X<X<X<X<X<X0.; ' W W W W W W W W W E j f A A A A A A J z o = 3.oX<X<X<X<X<X<X<X<X<X<X",
"<X<X<X<X<X<X<X<X<X<X<X<X(.1 t Q W W W W W W W ! U k A A A A A A C x % , 4.~.;X,X,X$X<X<X<X<X<X<X<X<X",
"<X<X<X<X<X<X<X<X<X<X<X,X9.: ' W W W W W W E / k A A A A A A Z B $ . 7 M.;X<X<XOX;.&.*X<X<X<X<X<X<X<X",
"<X<X<X<X<X<X<X<X<X<X<X].1 e R W W W W W ( j f A A A A A S B r o 1 x.|.<X<X<X<Xq., l.,X<X<X<X<X<X<X<X",
"<X<X<X<X<X<X<X<X<X<X:Xx.. P W W W W ! ] f A A A A A A C c X = ;.).<X<X;X{.=X<XOX}.<X<X<X<X<X<X<X<X<X",
"<X<X<X<X<X<X<X<X<X<X).5 e Q W W E U l G A A A A A S v u , p A.;X<X,XC.4.4 C.<X<X<X<X<X<X<X<X<X<X<X<X",
"<X<X<X<X<X<X<X<X<X,Xj.: P W E / h f A A A A A S M # , 9 m.&X,X>X{.8., 9 v.;X<X<X<X<X<X<X<X<X<X<X<X<X",
"<X<X<X<X<X<X<X<X<X|.0 w ) ( j f A A A A A A B s o , w.].<X<X@Xk.7 2 j.'.,X<X<X<X<X<X<X<X<X<X<X<X<X<X",
"<X<X<X<X<X<X<X<X<Xk.; I [ g A A A A A A C c o , 1./.<X<X;XA.0 . 2.^.,X<X<X<X<X<X<X<X<X<X<X<X<X<X<X<X",
"<X<X<X<X<X<X<X<X].4 u F f A A A A A S v u O 8 A.&X<X<X<X(.2 0 ~.*X<X<X<X<X<X<X<X<X<X<X<X<X<X<X<X<X<X",
"<X<X<X<X<X<X<X,Xv.< v A A A A A Z M a o 7 k.$X,X<X<X<X<X&XB.oX,X<X<X<X<X<X<X<X<X<X<X<X<X<X<X<X<X<X<X",
"<X<X<X<X<X<X<X#X7 % V A A A A V r > , 9.}.,X<X<X<X<X<X<X<X<X<X<X<X<X<X<X<X<X<X<X<X<X<X<X<X<X<X<X<X<X",
"<X<X<X<X<X<X,Xm.. v A A D V x % O 4.A.,X<X<X<X<X<X<X<X<X<X<X<X<X<X<X<X<X<X<X<X<X<X<X<X<X<X<X<X<X<X<X",
"<X<X<X<X<X<X}.1 % C A Z b $ O 7 Z.;X<X<X<X<X<X<X<X<X<X<X<X<X<X<X<X<X<X<X<X<X<X<X<X<X<X<X<X<X<X<X<X<X",
"<X<X<X<X<X,Xm., x C M a o 7 v.}.,X<X<X<X<X<X<X<X<X<X<X<X<X<X<X<X<X<X<X<X<X<X<X<X<X<X<X<X<X<X<X<X<X<X",
"<X<X<X<X<X*X=.o N n o , 3.`.,X<X<X<X<X<X<X<X<X<X<X<X<X<X<X<X<X<X<X<X<X<X<X<X<X<X<X<X<X<X<X<X<X<X<X<X",
"<X<X<X<X<Xn., > u X ;.Q.;X<X<X<X<X<X<X<X<X<X<X<X<X<X<X<X<X<X<X<X<X<X<X<X<X<X<X<X<X<X<X<X<X<X<X<X<X<X",
"<X<X<X<XoX4 . O 7 n.*X<X<X<X<X<X<X<X<X<X<X<X<X<X<X<X<X<X<X<X<X<X<X<X<X<X<X<X<X<X<X<X<X<X<X<X<X<X<X<X",
"<X<X<X<XV., 2 j.{.,X<X<X<X<X<X<X<X<X<X<X<X<X<X<X<X<X<X<X<X<X<X<X<X<X<X<X<X<X<X<X<X<X<X<X<X<X<X<X<X<X",
"<X<X<X<X~.6.^.,X<X<X<X<X<X<X<X<X<X<X<X<X<X<X<X<X<X<X<X<X<X<X<X<X<X<X<X<X<X<X<X<X<X<X<X<X<X<X<X<X<X<X",
"<X<X<X<X<X,X<X<X<X<X<X<X<X<X<X<X<X<X<X<X<X<X<X<X<X<X<X<X<X<X<X<X<X<X<X<X<X<X<X<X<X<X<X<X<X<X<X<X<X<X"
};
