/* XPM */
static char *ab2887670b894e2cdb58659c65558e0027L2fs1ZpI47D8Yr[] = {
/* columns rows colors chars-per-pixel */
"15 15 124 2 ",
"   c #F6F7F9",
".  c #A6B2C6",
"X  c #AEB9CC",
"o  c #F5F7F9",
"O  c white",
"+  c #B0BBCD",
"@  c #9AA8BF",
"#  c #6B6794",
"$  c #9C93B4",
"%  c #D3D8E2",
"&  c #FDFEFE",
"*  c #C9D0DD",
"=  c #9CAAC0",
"-  c #9788AC",
";  c #CB75AA",
":  c #A377A6",
">  c #A7A5BE",
",  c #E5E8ED",
"<  c #F9FAFB",
"1  c #D4D9E3",
"2  c #B5BBCB",
"3  c #B87F83",
"4  c #FC8DA1",
"5  c #CE78AD",
"6  c #9B7DA8",
"7  c #B6B8CB",
"8  c #F0F3F6",
"9  c #E7EAEF",
"0  c #B2BBCD",
"q  c #99957B",
"w  c #EDA72C",
"e  c #FF9D73",
"r  c #F386AC",
"t  c #BD75AA",
"y  c #9988AD",
"u  c #C6CBD8",
"i  c #F9FBFB",
"p  c #FAFAFB",
"a  c #EEF0F4",
"s  c #BCC2C7",
"d  c #BB9829",
"f  c #FFBB04",
"g  c #FFAC38",
"h  c #FF9689",
"j  c #E880AF",
"k  c #AC74A6",
"l  c #9E98B6",
"z  c #D8DCE5",
"x  c #FEFFFF",
"c  c #EFF2F5",
"v  c #9C9674",
"b  c #EFB206",
"n  c #FFBC00",
"m  c #FFB80E",
"M  c #FFA74D",
"N  c #FE9199",
"B  c #DB7DAE",
"V  c #A078A5",
"C  c #ABA9C2",
"Z  c #E7E9EF",
"A  c #A5AAA8",
"S  c #D3A316",
"D  c #FEBC00",
"F  c #FD9F26",
"G  c #FF777C",
"H  c #F07CAA",
"J  c #8C6599",
"K  c #95A0BA",
"L  c #FCFDFD",
"P  c #ECEFF3",
"I  c #9C946E",
"U  c #F2B405",
"Y  c #FFBD00",
"T  c #FDB008",
"R  c #FE8622",
"E  c #FB593A",
"W  c #D14A4F",
"Q  c #9A6D8A",
"!  c #B1B2C8",
"~  c #B8BDC1",
"^  c #BF9B26",
"/  c #FFB703",
"(  c #FE9319",
")  c #FD6335",
"_  c #E14A49",
"`  c #A6596A",
"'  c #9F95A9",
"]  c #C4CAD6",
"[  c #CCD1DC",
"{  c #EEF0F5",
"}  c #9A9173",
"|  c #EE9617",
" . c #FF6F2E",
".. c #ED4D44",
"X. c #B34E5C",
"o. c #978095",
"O. c #A0A9BD",
"+. c #A1ABC0",
"@. c #E1E3E9",
"#. c #F6F6F8",
"$. c #BBBCC9",
"%. c #BC5F4C",
"&. c #F8543E",
"*. c #C44A53",
"=. c #987084",
"-. c #C0C1CE",
";. c #CED3DE",
":. c #ABB4C6",
">. c #E3E6EC",
",. c #957489",
"<. c #C4454E",
"1. c #9E6074",
"2. c #AEAABB",
"3. c #EBEEF2",
"4. c #FBFBFC",
"5. c #FDFDFD",
"6. c #B5BDCE",
"7. c #695879",
"8. c #A293A7",
"9. c #DDE0E8",
"0. c #FEFEFE",
"q. c #AFB8CA",
"w. c #BCC4D3",
"e. c #FAFCFD",
/* pixels */
"  . X o O O O O O O O O O O O ",
"+ @ # $ % & O O O O O O O O O ",
"* = - ; : > , O O O O O O O O ",
"< 1 2 3 4 5 6 7 8 O O O O O O ",
"O 9 0 q w e r t y u i O O O O ",
"O p a s d f g h j k l z x O O ",
"O O O c v b n m M N B V C Z O ",
"O O O O A S n n D F G H J K L ",
"O O O P I U Y T R E W Q ! a O ",
"O O O ~ ^ / ( ) _ ` ' ] [ O O ",
"O O { } |  ...X.o.O.+.@.#.O O ",
"O O $.%.&.*.=.-.;.:.>.O O O O ",
"O 8 ,.<.1.2.3.O 4.5.O O O O O ",
"O 6.7.8.9.O O O O O O O O O O ",
"0.q.w.e.O O O O O O O O O O O "
};
