/* XPM */
static char *_04bc70898be4776ed4a29e4b4cf2b35v1CkIQw0MtwtHsKg[] = {
/* columns rows colors chars-per-pixel */
"20 20 11 1 ",
"  c #000000",
". c #BE4D91",
"X c #BE4E91",
"o c #BD4D93",
"O c #BE4D92",
"+ c #BF4D92",
"@ c #BE4D93",
"# c #BF4D93",
"$ c #BE4E92",
"% c #BF4E92",
"& c #C04D93",
/* pixels */
"                    ",
"                    ",
" OOO                ",
"  OOOOO             ",
"   OOOOOO           ",
"   OOOOOOOO         ",
"    OOOOOOOOO       ",
"    OOOOOOOOOOO     ",
"     OOOOOOOOOOOO   ",
"      OOOOOO&OOOOOO ",
"      OOOOOOOOOOOOO ",
"     OOOOOOOOOOOO   ",
"    OOOOOOOOOOO     ",
"    OOOOOOOOO       ",
"   OOOOOOOO         ",
"   OOOOOO           ",
"  OOOOO             ",
" OOO                ",
"                    ",
"                    "
};
